# xmcd
#
# Track frame offsets:
#	150
#	20662
#	38748
#	59320
#	68361
#	84843
#	95620
#	115486
#	129638
#	144394
#	153905
#	164624
#	178786
#	190540
#	200742
#
# Disc length: 2941 seconds
#
# Revision: 0
# Processed by: cddbd v1.5.2PL0 Copyright (c) Steve Scherf et al.
# Submitted via: EasyCDDAExtractor 2010.6.0.0
#
DISCID=c90b7b0f
DTITLE=Vladimir Vysotsky - 12 Затяжной Прыжок (На Концертах, №12)
DYEAR=2002
DGENRE=Vocal
TTITLE0=Тюменская Нефть
TTITLE1=Затяжной Прыжок
TTITLE2=Памятник
TTITLE3=Когда Я Спотыкаюсь На Стихах…
TTITLE4=Баллада Об Уходе В Рай
TTITLE5=Песня Солодова
TTITLE6=Я Теперь В Дураках, Не Уйти Мне С Земли…
TTITLE7=Очи Черные. I Погоня
TTITLE8=Очи Черные. Ii Старый Дом
TTITLE9=Ну, Вот Исчезла Дрожь В Руках…
TTITLE10=Песенка Про Йогов
TTITLE11=Он Не Вернулся Из Боя
TTITLE12=Мой Друг Уехал В Магадан
TTITLE13=Диалог У Телевизора
TTITLE14=Диалог У Телевизора
EXTD=
EXTT0=
EXTT1=
EXTT2=
EXTT3=
EXTT4=
EXTT5=
EXTT6=
EXTT7=
EXTT8=
EXTT9=
EXTT10=
EXTT11=
EXTT12=
EXTT13=
EXTT14=
PLAYORDER=
